inDegrees=no
num_controls=7
num_derivatives=13
num_iterations=85
num_multipliers=7
num_parameters=0
num_slacks=7
num_states=26
objective=0.334179
objective_accelerations=0.037090
objective_balance=0.001332
objective_effort=0.027132
objective_height=0.267162
objective_ligament=0.001464
solver_duration=903.570653
status=Solve_Succeeded
success=true
DataType=double
version=3
OpenSimVersion=4.5
endheader
time	/jointset/ground_pelvis/pelvis_tilt/value	/jointset/ground_pelvis/pelvis_tx/value	/jointset/ground_pelvis/pelvis_ty/value	/jointset/hip_r/hip_flexion_r/value	/jointset/hip_r/hip_adduction_r/value	/jointset/hip_r/hip_rotation_r/value	/jointset/back/lumbar_extension/value	/jointset/patellofemoral_r/patellar_flexion_r/value	/jointset/knee_r/knee_flexion_r/value	/jointset/knee_r/knee_adduction_r/value	/jointset/knee_r/knee_rotation_r/value	/jointset/ankle_r/ankle_angle_r/value	/jointset/subtalar_r/subtalar_angle_r/value	/jointset/ground_pelvis/pelvis_tilt/speed	/jointset/ground_pelvis/pelvis_tx/speed	/jointset/ground_pelvis/pelvis_ty/speed	/jointset/hip_r/hip_flexion_r/speed	/jointset/hip_r/hip_adduction_r/speed	/jointset/hip_r/hip_rotation_r/speed	/jointset/back/lumbar_extension/speed	/jointset/patellofemoral_r/patellar_flexion_r/speed	/jointset/knee_r/knee_flexion_r/speed	/jointset/knee_r/knee_adduction_r/speed	/jointset/knee_r/knee_rotation_r/speed	/jointset/ankle_r/ankle_angle_r/speed	/jointset/subtalar_r/subtalar_angle_r/speed	/forceset/tau_hip_flexion_r	/forceset/tau_hip_adduction_r	/forceset/tau_hip_rotation_r	/forceset/tau_knee_flexion_r	/forceset/tau_ankle_angle_r	/forceset/tau_subtalar_angle_r	/forceset/tau_lumbar_extension	lambda_cid13_p0	lambda_cid14_p0	lambda_cid14_p1	lambda_cid14_p2	lambda_cid14_p3	lambda_cid14_p4	lambda_cid14_p5	/jointset/ground_pelvis/pelvis_tilt/accel	/jointset/ground_pelvis/pelvis_tx/accel	/jointset/ground_pelvis/pelvis_ty/accel	/jointset/hip_r/hip_flexion_r/accel	/jointset/hip_r/hip_adduction_r/accel	/jointset/hip_r/hip_rotation_r/accel	/jointset/back/lumbar_extension/accel	/jointset/patellofemoral_r/patellar_flexion_r/accel	/jointset/knee_r/knee_flexion_r/accel	/jointset/knee_r/knee_adduction_r/accel	/jointset/knee_r/knee_rotation_r/accel	/jointset/ankle_r/ankle_angle_r/accel	/jointset/subtalar_r/subtalar_angle_r/accel	gamma_cid13_p0	gamma_cid14_p0	gamma_cid14_p1	gamma_cid14_p2	gamma_cid14_p3	gamma_cid14_p4	gamma_cid14_p5
0	-0.009276915013154219	0.1328710667939393	0.9328940660651319	0.1934211968871041	-0.2336834743039749	-0.2341983987343478	-0.2903787966825928	0.2311786273363401	0.2311786273363406	0.1450798395571535	0.1693949602991174	0.089344008118978	0.05694367809079628	0	0	0	0	0	0	0	0	0	0	0	0	0	0.1136485647726528	-0.04535219473190012	0.004264776821695341	-0.2578091137641668	0.1433364267326106	-0.1207397328587942	-0.03250077982292308	-29.85135273314878	-1.888433436245973	-48.19842184727094	2.886617769417628	-2.177132651196183	-611.0283771932243	23.4139133068337	-2.143062404419002	-1.836124284709734	-0.8432657311348876	10.28117673514946	0.2686177819860294	2.198895766165684	-6.288792438396289	10.13496203696148	10.13496203695872	-3.157249088873638	0.3618048707250959	2.811059286269907	1.101982706400683	6.418415976239867e-08	4.748110342323934e-08	-4.338354974015152e-07	3.177382300168568e-07	1.00961565632894e-08	2.235244801588484e-07	-3.816641130523655e-07
0.01	-0.009378320823330063	0.1327813480294455	0.9328531117138548	0.193921835020947	-0.2336676522618876	-0.2340881566297308	-0.2906941504317499	0.2316759128280076	0.2316759128280022	0.1449194257867997	0.1694087594859642	0.08948376191247984	0.05700150370437251	-0.02023308526305705	-0.01775603763389202	-0.008167895313879662	0.09956734553171326	0.00313310165454614	0.02191985518078919	-0.06260243920955193	0.09897048640714445	0.09897048640713213	-0.03188713543346361	0.002754291884056403	0.02792984160861759	0.01152444702912452	0.1122677582249073	-0.06361636569175957	0.004308391963966096	-0.2605583147063772	0.1453257945212484	-0.1066348991500339	-0.03034521799682063	-29.85631693652637	-0.5432775784075158	-41.6612281755609	1.643446852730845	-5.019495920957213	-612.7098537736177	37.40773462466175	-1.956221925748892	-1.717184193744966	-0.8000604853882887	9.710472783292955	0.3309490957060596	2.169310653402286	-6.175723069005399	9.705087316925379	9.705087316925399	-3.175142509666316	0.231472770063704	2.780819233914166	1.171543328644286	8.113623128485859e-08	3.6967090546906e-08	-5.225292750663124e-07	4.113952972328558e-07	3.217961005786322e-08	9.88894237691838e-08	-5.000868753522336e-07
0.02	-0.009680615553834994	0.1325197007504096	0.9327311765986642	0.1954013384743334	-0.2336214406555523	-0.2337625599214339	-0.2916214792543556	0.2331483022586051	0.233148302258606	0.1444460013142822	0.1694499478762378	0.08990218864921928	0.05717334731373518	-0.04017778406611251	-0.03438570290842265	-0.01619615278268942	0.1957730639078529	0.006077912849778385	0.04307092073624792	-0.122395014689936	0.1950207877876674	0.1950207877876628	-0.06260214043027092	0.005477840680822627	0.05573458864749507	0.02280359915728695	0.1108869516771947	-0.08188053665161962	0.004352007106324423	-0.2633075156485777	0.1473151623098915	-0.09253006544127418	-0.02818965617069508	-29.87075937440918	0.8815227144540598	-35.13308290724453	0.4279840178439835	-7.787506439206175	-613.0757882867958	51.06158878850187	-2.085385112418696	-1.610849812837447	-0.8153381621209069	9.608851304034745	0.230959690123252	2.045137841099594	-5.726819692562725	9.550925031637169	9.550925031638426	-2.922823001542382	0.3556562532670581	2.786040372321896	1.052923726208267	9.808830280731851e-08	2.645307767057266e-08	-6.112230527311097e-07	5.050523644488547e-07	5.426306355243703e-08	-2.574563262048084e-08	-6.185096376521018e-07
0.03	-0.01018079329485087	0.1320960573660907	0.9325293470391183	0.1978279050087603	-0.23354695253325	-0.2332303416105308	-0.2931331533329609	0.235567301079127	0.2355673010791292	0.1436716436688008	0.1695192942974515	0.09059653724186655	0.05745609811584409	-0.05975845867977045	-0.0502877312719895	-0.02417021040987746	0.2891203008083307	0.008794364179057443	0.06327544632618154	-0.1795610688360141	0.2883432666031009	0.2883432666030684	-0.09208394370763841	0.008341882725262914	0.08297389173490206	0.03367622225515304	0.1045213413025018	-0.08120917053463386	0.00509885602307545	-0.2557597468451416	0.1364096572410005	-0.08797998185093493	-0.02313714288221078	-29.8940945952893	-2.381619636214552	-33.5873657014368	0.02053437482003794	-6.037437104854257	-613.3107601284288	53.00412256029133	-1.879506847288045	-1.571582003758153	-0.7885129082321958	9.134673198336216	0.2881942110095754	1.993614202158872	-5.654688446393006	9.157533163281347	9.15753316327641	-2.933086589227826	0.2444414110154593	2.668698979873935	1.093844919468601	1.077167239028514e-07	2.453237300670786e-08	-6.484146623764936e-07	5.623202043555644e-07	6.160744083077151e-08	-8.741371525605129e-08	-6.750987402770062e-07
